<?xml version="1.0" encoding="utf-8"?>
<!-- Generator: Adobe Illustrator 21.1.0, SVG Export Plug-In . SVG Version: 6.00 Build 0)  -->
<svg version="1.1" id="Layer_1" xmlns="http://www.w3.org/2000/svg" xmlns:xlink="http://www.w3.org/1999/xlink" x="0px" y="0px"
	 viewBox="0 0 242.2 242.1" style="enable-background:new 0 0 242.2 242.1;" xml:space="preserve">
<style type="text/css">
	.st0{fill:#191919;}
</style>
<g>
	<path class="st0" d="M197.5,212.7c-3.4,1.4-7.5,2.5-12.3,3.5c-4.8,0.9-10.4,1.6-16.6,2c-6.2,0.4-13.1,0.5-20.5,0.3
		c-12.9-0.4-26.4-1.6-39.6-3.6c-13.2-2-26.1-4.7-38-8c-11.8-3.2-22.5-7-31.5-11c-8.9-4-15.9-8.3-20.5-12.6c-0.5-0.5-0.9-0.9-1.4-1.4
		c-0.4-0.5-0.8-0.9-1.2-1.4c-0.4-0.5-0.7-0.9-1-1.3c-0.3-0.4-0.6-0.9-0.8-1.3c4.8,8.8,8.5,13.8,10.8,16.7
		c4.7,6.1,9.8,11.4,12.5,13.9c4.8,4.6,11.4,9.9,16.4,13.2c3.7,2.4,10.6,6.9,21.1,11.3c5.9,2.5,10.5,3.8,13.9,4.8
		c0,0,2.4,0.7,5.9,1.5c0.8,0.2,2,0.4,2.8,0.6c0.8,0.2,2,0.3,2.8,0.5c0,0,4.4,0.8,8.5,1.2c4,0.4,5.3,0.4,9.6,0.6
		c12.7,0.2,21.5-1.4,25.7-2.2c2.4-0.5,6.6-1.4,12.4-3.1c3.2-1,7.3-2.5,10.4-3.7c0.2-0.1,5.3-2.1,11.8-5.6c4-2.2,5.5-3.1,10.8-6.6
		c3.3-2.1,7.1-5.2,9.9-7.5c1.9-1.5,3.9-3.6,5.7-5.2C203.2,209.9,200.9,211.3,197.5,212.7z"/>
	<path class="st0" d="M240,98.7c0.5,2.8-0.6,5.3-3.4,7.5c-2.8,2.2-7.1,4.1-12.9,5.5c-5.9,1.5-13.2,2.5-22,3
		c-8.8,0.5-18.9,0.6-30.3,0c-15-0.7-30.6-2.3-46-4.7c-15.4-2.4-30.4-5.4-44.2-9C67.5,97.5,55,93.5,44.6,89.3
		C34.3,85.1,26,80.6,20.7,76.2c-1.5-1.3-2.8-2.5-3.8-3.7c-1-1.2-1.7-2.3-2.1-3.4c-0.5-1.1-0.7-2.2-0.6-3.2c0-1,0.3-2,0.8-2.9
		c-2.5,4.7-5.9,11.1-9.3,21.5c-2.2,6.9-4,14.8-4.8,21.8c-0.7,6-0.8,8.8-0.9,12.7c-0.1,2.4,0,7,0.2,10.1c0.2,2.5,0.5,6.7,1.5,12.4
		c0.9,5.4,1.9,9.1,2.7,12.1c0.2,0.7,0.4,1.3,0.8,2c0.3,0.7,0.7,1.4,1.2,2.1c0.5,0.7,1,1.4,1.7,2.2c0.6,0.7,1.4,1.5,2.2,2.2
		c5.1,4.8,13.1,9.5,23,13.9c10.1,4.5,22.1,8.6,35.5,12.2c13.4,3.6,28,6.7,42.9,8.9c14.9,2.3,30.1,3.7,44.7,4.2
		c9.2,0.3,17.5,0.1,25-0.4c7.4-0.5,14-1.4,19.6-2.6c5.6-1.2,10.2-2.7,13.8-4.4c3.6-1.7,6.1-3.8,7.6-6c2-3,7.2-11.2,11.5-21.9
		c4.1-10.4,5.9-18.9,6.8-24.3C244.1,121.1,241,104.2,240,98.7z"/>
	<path class="st0" d="M231.7,80.6C231.7,80.6,231.7,80.6,231.7,80.6c0.3-0.4,0.5-0.7,0.7-1c0.1-0.1,0.1-0.2,0.2-0.3
		c0.1-0.2,0.2-0.5,0.3-0.7c0-0.1,0.1-0.2,0.1-0.3c0.1-0.2,0.1-0.5,0.2-0.7c0-0.1,0-0.2,0-0.3c0-0.3,0-0.7,0-1.1v0c0,0,0,0,0,0
		c0-0.3-0.1-0.7-0.2-1.1c0-0.1-0.1-0.2-0.1-0.4c-0.1-0.2-0.1-0.3-0.2-0.5c-0.5-1.2-1.1-2.5-1.8-4c-0.3-0.6-0.5-1.1-0.8-1.6
		c-0.8-1.7-2-4.1-3-5.7c-0.1-0.1-0.1-0.2-0.2-0.4c-0.9-1.7-2-3.5-3.1-5.3c-1-1.6-2.3-3.7-3.4-5.2c-1.1-1.6-2.5-3.4-3.6-4.8
		c-0.6-0.8-1.2-1.5-1.8-2.2c-0.8-1-1.6-2-2.4-2.9c-1.7-2-3.8-4.2-5.6-6.1c-0.3-0.3-0.6-0.6-0.9-0.9c-1.9-1.9-3.4-3.2-3.4-3.3
		c-0.3-0.3-0.7-0.6-1.1-0.9c-2.3-2-4.6-4-7-5.9c-0.3-0.2-0.5-0.4-0.8-0.6c-0.1-0.1-0.2-0.1-0.2-0.2c-1-0.8-2.2-1.7-3.4-2.5
		c-0.6-0.4-1.1-0.8-1.6-1.1c0,0,0,0-0.1,0c-0.5-0.3-0.9-0.6-1.4-0.9c-0.1-0.1-0.2-0.1-0.3-0.2c-0.1-0.1-0.2-0.1-0.2-0.2
		c-0.6-0.4-1.2-0.8-1.9-1.2c-0.2-0.1-0.4-0.2-0.6-0.4c-2.4-1.5-4.7-2.8-6.8-3.9c-0.3-0.2-0.6-0.3-1-0.5c-0.2-0.1-0.4-0.2-0.5-0.3
		c-2.6-1.3-4.9-2.4-6.7-3.1c-0.4-0.2-0.8-0.3-1.3-0.5c-0.5-0.2-0.9-0.4-1.3-0.5c-1.7-0.7-4.6-1.9-8.6-3.1c0,0-0.1,0-0.1,0
		c-0.3-0.1-0.6-0.2-0.8-0.3c-1.3-0.4-2.6-0.8-4-1.2c-0.3-0.1-0.6-0.2-0.9-0.2c-0.6-0.2-1.2-0.3-1.8-0.5c-0.3-0.1-0.6-0.2-1-0.2
		c0,0-0.8-0.2-2-0.5c0,0,0,0,0,0c0,0,0,0,0,0c-0.6-0.1-1.2-0.3-1.9-0.4c-0.2,0-0.4-0.1-0.6-0.1c-0.8-0.2-1.5-0.3-2.3-0.4
		c-0.3-0.1-0.6-0.1-0.9-0.2c-0.2,0-0.5-0.1-0.7-0.1c-0.2,0-0.5-0.1-0.7-0.1c-0.8-0.1-1.6-0.2-2.3-0.4c0,0-3.8-0.6-8.4-0.9
		c-1.8-0.1-3.1-0.2-4.4-0.2c-0.1,0-0.3,0-0.4,0c-0.3,0-0.6,0-0.9,0c-0.9,0-1.8,0-2.6,0c-0.1,0-0.1,0-0.2,0c-1.5,0-3.4,0-5.9,0.2
		c-4.1,0.2-7.5,0.6-10,0.9c-0.1,0-0.1,0-0.2,0c-2.7,0.4-5.1,0.8-7.2,1.2c-0.1,0-0.1,0-0.2,0c-0.7,0.2-1.4,0.3-2.1,0.4
		c-1.6,0.4-3.1,0.7-4.5,1.1c-0.1,0-0.2,0-0.3,0.1c-3,0.8-5.5,1.6-7.9,2.4c-0.1,0-0.1,0-0.2,0.1c-0.8,0.2-3.2,1.1-6.5,2.4
		c-2,0.8-4.1,1.7-6.1,2.7c-1.9,0.9-3.8,1.9-5.8,2.9c-0.9,0.5-1.7,1-2.6,1.4c-3.2,1.8-6,3.6-7.9,4.9c0,0-0.1,0.1-0.1,0.1
		c-1.7,1.1-3,2.1-4,2.8c0,0-0.1,0.1-0.1,0.1c-1,0.7-1.5,1.1-1.5,1.2c-5.5,4.4-6.3,5-9.1,7.7c0,0,0,0,0,0c0,0-4.2,3.7-9.1,9.4
		c0,0.1-0.1,0.1-0.1,0.2c-0.3,0.3-0.5,0.6-0.7,1c0,0.1-0.1,0.2-0.2,0.3c-0.2,0.4-0.4,0.8-0.5,1.2c0,0,0,0.1,0,0.1c0,0,0,0.1,0,0.1
		c0,0.1,0,0.2,0,0.3c-0.1,0.3-0.1,0.7-0.1,1c0,0.2,0,0.3,0,0.5c0,0.3,0.1,0.7,0.2,1.1c0,0.1,0,0.2,0.1,0.3c0,0,0,0.1,0.1,0.1
		c0.2,0.5,0.4,1,0.7,1.5c0,0.1,0.1,0.2,0.2,0.3c0.3,0.4,0.6,0.9,0.9,1.3c0.1,0.1,0.1,0.1,0.1,0.2c0.1,0.1,0.2,0.2,0.3,0.3
		c0.3,0.4,0.7,0.8,1.1,1.1c0.2,0.2,0.3,0.3,0.5,0.5c0.6,0.6,1.2,1.1,1.9,1.7c4.9,3.9,12.4,7.8,21.8,11.5c9.5,3.8,20.8,7.3,33.3,10.5
		c12.5,3.2,26.1,5.9,40,8.1c13.9,2.1,28,3.7,41.6,4.4c1.5,0.1,3,0.1,4.5,0.2c0.5,0,1,0,1.6,0.1c1,0,1.9,0.1,2.9,0.1
		c0.6,0,1.1,0,1.7,0c0.9,0,1.8,0,2.8,0c0.5,0,1,0,1.4,0c1.3,0,2.6,0,3.9,0c0,0,0.1,0,0.1,0c1.3,0,2.6,0,3.9-0.1c0.4,0,0.7,0,1.1,0
		c0.9,0,1.8-0.1,2.7-0.1c0.4,0,0.8,0,1.2-0.1c0.3,0,0.7,0,1,0c0.6,0,1.1-0.1,1.6-0.1c0.3,0,0.6,0,0.9-0.1c2.3-0.2,4.5-0.4,6.6-0.6
		c0.2,0,0.5-0.1,0.7-0.1c0.8-0.1,1.5-0.2,2.3-0.3c0.3,0,0.6-0.1,0.8-0.1c0.7-0.1,1.4-0.2,2.1-0.3c0.2,0,0.5-0.1,0.7-0.1
		c1.7-0.3,3.2-0.6,4.6-1c0.1,0,0.2,0,0.3-0.1c0.2-0.1,0.4-0.1,0.7-0.2c0.5-0.1,1-0.3,1.5-0.4c0.2-0.1,0.5-0.2,0.7-0.2
		c0.5-0.2,0.9-0.3,1.3-0.5c0.2-0.1,0.4-0.1,0.6-0.2c0.6-0.2,1.2-0.5,1.7-0.7c0,0,0,0,0,0c0,0,0,0,0.1,0c0.5-0.2,1-0.5,1.4-0.7
		c0.2-0.1,0.3-0.2,0.4-0.3c0.3-0.2,0.6-0.4,0.9-0.6c0.1-0.1,0.3-0.2,0.4-0.3c0.3-0.2,0.5-0.4,0.7-0.6c0.1-0.1,0.2-0.2,0.4-0.3
		c0,0,0.1-0.1,0.1-0.1C231.3,81.1,231.5,80.9,231.7,80.6z"/>
</g>
</svg>
